<svg width="40" height="40" viewBox="0 0 40 40" fill="none" xmlns="http://www.w3.org/2000/svg">
<g clip-path="url(#clip0_7493_3630)">
<path d="M40 17.5781C40 7.8632 32.1381 0 22.4219 0C16.5407 0 11.0922 2.91281 7.81594 7.7975C3.11023 10.9528 0 16.2903 0 22.4219C0 32.1368 7.86195 40 17.5781 40C23.7103 40 29.0486 36.8877 32.2025 32.1841C37.0872 28.9079 40 23.4593 40 17.5781ZM4.74133 21.25H2.38836C2.64219 17.929 3.96609 14.9028 6.0143 12.5154L7.67648 14.1776C6.04656 16.1319 4.98367 18.5742 4.74133 21.25ZM17.5781 11.875C23.3937 11.875 28.125 16.6063 28.125 22.4219C28.125 28.2374 23.3937 32.9688 17.5781 32.9688C11.7626 32.9688 7.03125 28.2374 7.03125 22.4219C7.03125 16.6063 11.7626 11.875 17.5781 11.875ZM9.33383 32.3234C11.2881 33.9534 13.7305 35.0163 16.4062 35.2587V37.6116C13.0852 37.3578 10.0591 36.0339 7.67164 33.9857L9.33383 32.3234ZM18.75 35.2587C21.4258 35.0163 23.8681 33.9534 25.8224 32.3234L27.4846 33.9856C25.0972 36.0339 22.071 37.3578 18.75 37.6116V35.2587ZM27.4797 30.6662C29.1097 28.7119 30.1726 26.2695 30.4149 23.5938H32.7679C32.5141 26.9148 31.1902 29.9409 29.142 32.3284L27.4797 30.6662ZM30.4149 21.25C30.1726 18.5742 29.1097 16.1319 27.4797 14.1776L29.1419 12.5154C31.1901 14.9028 32.514 17.929 32.7678 21.25H30.4149ZM25.8224 12.5203C23.8681 10.8904 21.4258 9.82742 18.75 9.58508V7.23211C22.071 7.48594 25.0972 8.80984 27.4846 10.858L25.8224 12.5203ZM16.4062 9.58508C13.7305 9.82742 11.2881 10.8904 9.33383 12.5203L7.67164 10.8581C10.0591 8.80984 13.0852 7.48594 16.4062 7.23211V9.58508ZM2.38836 23.5938H4.74133C4.98367 26.2695 6.04656 28.7119 7.67656 30.6662L6.01438 32.3284C3.96609 29.9409 2.64219 26.9148 2.38836 23.5938ZM17.5781 4.84375C16.1223 4.84375 14.6937 5.01992 13.3162 5.36141C15.9091 3.42641 19.0852 2.34375 22.4219 2.34375C30.8221 2.34375 37.6562 9.17789 37.6562 17.5781C37.6562 20.9148 36.5736 24.0908 34.6386 26.6838C34.9801 25.3062 35.1562 23.8777 35.1562 22.4219C35.1562 12.707 27.2944 4.84375 17.5781 4.84375Z" fill="#5AB060"/>
<path d="M14.6709 26.6407C15.2911 26.6407 15.8766 26.4948 16.4062 26.2214V28.2813H14.0624V30.625H21.0937V28.2813H18.7499V26.2214C19.2796 26.4948 19.865 26.6407 20.4852 26.6407C22.7724 26.6407 24.5641 24.7397 24.5641 22.313C24.5641 19.6372 22.3079 17.8613 19.8426 15.7806C18.3367 14.5096 18.3221 14.4802 17.578 13.84C16.8079 14.5025 16.8204 14.5086 15.3134 15.7805C12.5723 18.0941 10.5918 19.7657 10.5918 22.313C10.5919 24.7397 12.3836 26.6407 14.6709 26.6407ZM16.8252 17.5715C17.0711 17.364 17.3212 17.1529 17.578 16.9346C17.8349 17.1529 18.0851 17.3641 18.3309 17.5716C20.7111 19.5804 22.2205 20.8546 22.2205 22.313C22.2205 23.2989 21.6245 24.2969 20.4852 24.2969C19.4434 24.2969 18.9266 23.2264 18.7527 22.7661L18.4665 22.0313H16.6896L16.4034 22.7661C16.2295 23.2264 15.7127 24.2969 14.6709 24.2969C13.5316 24.2969 12.9356 23.2989 12.9356 22.313C12.9356 20.9164 14.1984 19.7887 16.8252 17.5715Z" fill="#5AB060"/>
</g>
<defs>
<clipPath id="clip0_7493_3630">
<rect width="40" height="40" fill="white"/>
</clipPath>
</defs>
</svg>
